<?xml version="1.0" encoding="UTF-8"?>
<svg version="1.1" xmlns="http://www.w3.org/2000/svg" width="500" height="500">
<path d="M0 0 C2.41001543 -0.00243296 4.82002984 -0.00615715 7.2300415 -0.01106262 C13.05582014 -0.01943925 18.88146141 -0.01402037 24.70723075 -0.00179968 C31.51245326 0.01193497 38.31764713 0.01017246 45.12287997 0.00806699 C57.27644414 0.00488858 69.4299494 0.01647886 81.58349609 0.03613281 C93.33807162 0.05513618 105.09257817 0.0622178 116.84716797 0.05664062 C129.69311832 0.05056354 142.53903847 0.05079478 155.38498634 0.06212646 C156.75836082 0.06333356 158.1317353 0.06453955 159.50510979 0.0657444 C160.18057884 0.06634794 160.85604789 0.06695148 161.5519857 0.06757331 C166.27955467 0.07142944 171.0071123 0.07106786 175.73468208 0.06915855 C182.11324203 0.06726396 188.49171451 0.07546903 194.87025452 0.09121895 C197.20014013 0.09543259 199.53003467 0.09633223 201.85992241 0.09352875 C229.07468385 0.06576845 253.28646166 2.39846802 273.81811523 22.3996582 C278.30860186 26.98156973 282.04965973 32.06754612 285.65014648 37.37231445 C286.2940332 38.29077148 286.2940332 38.29077148 286.95092773 39.2277832 C297.31927119 55.44082992 295.94359571 77.1463603 295.90893555 95.50512695 C295.91164965 97.92779648 295.91521293 100.35046517 295.91955566 102.77313232 C295.92769212 108.64072937 295.92655178 114.50827932 295.92073038 120.375875 C295.9161926 125.14945233 295.91561008 129.92301536 295.91777802 134.69659424 C295.91808448 135.37894485 295.91839095 136.06129545 295.9187067 136.76432335 C295.91934622 138.15099764 295.91999465 139.53767193 295.92065188 140.92434621 C295.92633946 153.89251785 295.91982207 166.86066111 295.90905115 179.8288281 C295.90011707 190.92862421 295.90166956 202.02837847 295.91088867 213.12817383 C295.9216192 226.05355199 295.92579028 238.97890534 295.91966414 251.90428734 C295.91902712 253.28553644 295.91839838 254.66678555 295.91777802 256.04803467 C295.91746946 256.72743422 295.91716091 257.40683377 295.91684301 258.10682118 C295.9151244 262.86835972 295.91801307 267.62988238 295.92273712 272.39141846 C295.9289692 278.81342007 295.9244603 285.23536159 295.91294861 291.65735626 C295.91031764 294.00581991 295.9110402 296.35429023 295.91547394 298.70275116 C295.9516854 319.84180879 294.83457866 338.76887559 283.65014648 357.37231445 C282.99014648 357.37231445 282.33014648 357.37231445 281.65014648 357.37231445 C281.39233398 357.9446582 281.13452148 358.51700195 280.86889648 359.10668945 C279.53648706 361.5836044 277.9995853 363.50643106 276.15014648 365.62231445 C275.54170898 366.3287207 274.93327148 367.03512695 274.30639648 367.76293945 C272.65014648 369.37231445 272.65014648 369.37231445 270.65014648 369.37231445 C270.65014648 370.03231445 270.65014648 370.69231445 270.65014648 371.37231445 C268.68085937 372.9273308 266.72691785 374.34907246 264.65014648 375.74731445 C263.75102539 376.35675903 263.75102539 376.35675903 262.83374023 376.97851562 C242.23252176 390.76364521 218.97575413 390.67870784 195.02880859 390.63110352 C192.70893749 390.63381999 190.38906725 390.63738458 188.06919861 390.64172363 C181.82136659 390.65077132 175.57360128 390.64733522 169.32576823 390.64096546 C162.75677369 390.63586633 156.18778447 390.64060766 149.61878967 390.64373779 C137.88884716 390.64799545 126.15893247 390.64142216 114.42899478 390.63121912 C103.82878764 390.6222837 93.22862432 390.62384028 82.62841797 390.63305664 C70.2680801 390.64379858 57.9077701 390.64772324 45.54742819 390.64183211 C39.02294557 390.63872919 32.49849302 390.63825667 25.97401237 390.64490509 C19.83839124 390.65072175 13.70285212 390.64660329 7.56723976 390.63511658 C5.32807424 390.63249307 3.08890171 390.63319508 0.84973907 390.63764191 C-26.62712201 390.68713979 -52.10193442 388.49751762 -72.58813477 368.3059082 C-93.85967177 346.29294433 -94.66599585 319.63147558 -94.60864258 290.67504883 C-94.61135904 288.34694815 -94.61492362 286.01884834 -94.6192627 283.69075012 C-94.62831111 277.42012449 -94.62487384 271.14956533 -94.61850452 264.87893867 C-94.61392372 258.95558514 -94.61743797 253.03223948 -94.62035891 247.10888571 C-94.62603839 234.66277254 -94.61954196 222.21668901 -94.60875818 209.77058071 C-94.59982485 199.13146281 -94.60137757 188.49238859 -94.6105957 177.85327148 C-94.62134071 165.44641291 -94.62548929 153.03958019 -94.61937118 140.63271761 C-94.61626937 134.08416987 -94.61579254 127.53565208 -94.62244415 120.98710632 C-94.62826465 114.82767971 -94.62413549 108.66833474 -94.61265564 102.50891685 C-94.61003404 100.26210859 -94.61073078 98.01529332 -94.61518097 95.76848793 C-94.65215396 75.18820428 -94.51185802 54.8816798 -84.34985352 36.37231445 C-83.68985352 36.37231445 -83.02985352 36.37231445 -82.34985352 36.37231445 C-82.25704102 35.8102832 -82.16422852 35.24825195 -82.06860352 34.66918945 C-78.76517535 24.11258206 -66.30522655 14.97525574 -57.05688477 9.74731445 C-38.70730387 0.42689241 -20.10973452 -0.07169908 0 0 Z M-9.34985352 97.37231445 C-9.34985352 157.43231445 -9.34985352 217.49231445 -9.34985352 279.37231445 C3.85014648 279.37231445 17.05014648 279.37231445 30.65014648 279.37231445 C30.65014648 255.94231445 30.65014648 232.51231445 30.65014648 208.37231445 C36.26014648 208.37231445 41.87014648 208.37231445 47.65014648 208.37231445 C51.6319001 208.31377986 55.61077692 208.24616493 59.59155273 208.15356445 C60.61071274 208.13136841 61.62987274 208.10917236 62.67991638 208.08630371 C65.85753434 208.01670956 69.03508806 207.94457026 72.21264648 207.87231445 C74.39949168 207.82396666 76.58634062 207.77578848 78.77319336 207.7277832 C84.06556596 207.61155541 89.35784382 207.49186627 94.65014648 207.37231445 C94.65014648 195.82231445 94.65014648 184.27231445 94.65014648 172.37231445 C73.86014648 172.04231445 53.07014648 171.71231445 31.65014648 171.37231445 C31.32014648 158.50231445 30.99014648 145.63231445 30.65014648 132.37231445 C36.48573242 132.38391602 42.32131836 132.39551758 48.33374023 132.4074707 C52.0205903 132.41257746 55.70743603 132.41739123 59.39428711 132.42114258 C65.25212504 132.42713102 71.10994742 132.43423135 76.96777344 132.44775391 C81.68802626 132.4585828 86.40826241 132.46459129 91.12852669 132.4671917 C92.93353602 132.46904594 94.7385444 132.47266655 96.54354668 132.47804451 C99.06274293 132.48525497 101.58186939 132.48630539 104.10107422 132.48583984 C105.23179604 132.49123276 105.23179604 132.49123276 106.38536072 132.49673462 C109.8056888 132.79790981 109.8056888 132.79790981 112.65014648 131.37231445 C112.65014648 120.15231445 112.65014648 108.93231445 112.65014648 97.37231445 C72.39014648 97.37231445 32.13014648 97.37231445 -9.34985352 97.37231445 Z M168.65014648 97.37231445 C167.99014648 98.69231445 167.33014648 100.01231445 166.65014648 101.37231445 C165.99014648 101.37231445 165.33014648 101.37231445 164.65014648 101.37231445 C161.68778953 105.00555134 161.68778953 105.00555134 160.65014648 109.37231445 C159.99014648 109.37231445 159.33014648 109.37231445 158.65014648 109.37231445 C157.362216 110.80421498 157.362216 110.80421498 156.11889648 112.6965332 C155.63807617 113.39584961 155.15725586 114.09516602 154.66186523 114.81567383 C154.16299805 115.55624023 153.66413086 116.29680664 153.15014648 117.05981445 C152.6512793 117.78104492 152.15241211 118.50227539 151.63842773 119.24536133 C149.18790926 122.84230199 147.03080854 126.20567361 145.65014648 130.37231445 C144.99014648 130.37231445 144.33014648 130.37231445 143.65014648 130.37231445 C142.08456615 132.36069339 140.64051902 134.35014809 139.21264648 136.43481445 C138.30742748 137.73110794 137.40114171 139.02665701 136.49389648 140.3215332 C136.02467773 140.99361816 135.55545898 141.66570312 135.07202148 142.3581543 C132.83614218 145.52539404 130.5216964 148.63326327 128.21264648 151.74731445 C123.85521177 157.65208312 119.63773237 163.64248407 115.52270508 169.71875 C113.51801844 172.67747426 111.49432517 175.57779889 109.33374023 178.42700195 C108.6750293 179.29583008 108.01631836 180.1646582 107.33764648 181.05981445 C106.76401367 181.78555664 106.19038086 182.51129883 105.59936523 183.2590332 C104.36916505 185.36928043 104.36916505 185.36928043 105.37792969 187.65942383 C107.78962056 192.80214289 111.04786471 197.43861327 114.15014648 202.18481445 C114.83979492 203.25924805 115.52944336 204.33368164 116.23999023 205.44067383 C116.9012793 206.45581055 117.56256836 207.47094727 118.24389648 208.5168457 C119.15171875 209.91447144 119.15171875 209.91447144 120.07788086 211.34033203 C120.59672852 212.01088623 121.11557617 212.68144043 121.65014648 213.37231445 C122.31014648 213.37231445 122.97014648 213.37231445 123.65014648 213.37231445 C124.31014648 215.35231445 124.97014648 217.33231445 125.65014648 219.37231445 C126.31014648 219.37231445 126.97014648 219.37231445 127.65014648 219.37231445 C127.9144043 220.1012793 128.17866211 220.83024414 128.45092773 221.58129883 C129.65618409 224.38636614 131.04669042 226.56343843 132.83764648 229.02856445 C137.17716439 235.09310811 141.28528185 241.29862392 145.40014648 247.5168457 C148.94363875 252.85581284 152.5588717 258.13270414 156.26733398 263.35864258 C157.65014648 265.37231445 157.65014648 265.37231445 158.65014648 267.37231445 C159.31014648 267.37231445 159.97014648 267.37231445 160.65014648 267.37231445 C160.95952148 268.39325195 160.95952148 268.39325195 161.27514648 269.43481445 C163.15543421 273.45179278 165.06999555 276.66427979 168.65014648 279.37231445 C172.43272503 280.32723453 176.07404488 280.1906148 179.95483398 280.0559082 C181.0339505 280.04600357 182.11306702 280.03609894 183.22488403 280.02589417 C186.65970778 279.9868179 190.09129454 279.89900229 193.52514648 279.80981445 C195.85843355 279.77469214 198.19177089 279.74275476 200.52514648 279.71411133 C206.23457769 279.63707862 211.94213084 279.52005685 217.65014648 279.37231445 C216.55254233 277.64702089 215.45487323 275.92176865 214.35717773 274.1965332 C213.74592041 273.23577881 213.13466309 272.27502441 212.50488281 271.28515625 C208.78297286 265.18407762 208.78297286 265.18407762 204.65014648 259.37231445 C203.99014648 259.37231445 203.33014648 259.37231445 202.65014648 259.37231445 C202.38065186 258.6349707 202.11115723 257.89762695 201.83349609 257.13793945 C200.69300677 254.47248391 199.43503659 252.44480789 197.71655273 250.12231445 C197.15000977 249.34887695 196.5834668 248.57543945 195.99975586 247.77856445 C195.41000977 246.98450195 194.82026367 246.19043945 194.21264648 245.37231445 C193.04543065 243.79034535 191.88001171 242.20704859 190.71655273 240.62231445 C190.17530762 239.88625977 189.6340625 239.15020508 189.07641602 238.3918457 C187.65014648 236.37231445 187.65014648 236.37231445 185.86499023 233.30981445 C185.4640918 232.67043945 185.06319336 232.03106445 184.65014648 231.37231445 C183.99014648 231.37231445 183.33014648 231.37231445 182.65014648 231.37231445 C182.36139648 230.60918945 182.07264648 229.84606445 181.77514648 229.05981445 C180.68745635 226.22202138 180.68745635 226.22202138 178.65014648 223.37231445 C177.99014648 223.37231445 177.33014648 223.37231445 176.65014648 223.37231445 C176.42327148 222.71231445 176.19639648 222.05231445 175.96264648 221.37231445 C174.26226499 217.48572817 172.25391564 213.73551628 169.65014648 210.37231445 C168.99014648 210.37231445 168.33014648 210.37231445 167.65014648 210.37231445 C167.39491211 209.64270508 167.13967773 208.9130957 166.87670898 208.16137695 C165.58140828 205.21601166 164.08914161 203.2060178 162.02514648 200.74731445 C161.32389648 199.88493164 160.62264648 199.02254883 159.90014648 198.1340332 C159.15764648 197.22266602 158.41514648 196.31129883 157.65014648 195.37231445 C156.087146 193.45198327 154.54472369 191.51468721 153.02514648 189.55981445 C152.33163086 188.68711914 151.63811523 187.81442383 150.92358398 186.9152832 C149.65014648 184.37231445 149.65014648 184.37231445 150.11889648 181.96606445 C152.08185133 178.64105931 154.35033194 175.68356969 156.77514648 172.68481445 C160.24812861 168.95210411 160.24812861 168.95210411 161.65014648 164.37231445 C162.31014648 164.37231445 162.97014648 164.37231445 163.65014648 164.37231445 C166.61250343 160.73907757 166.61250343 160.73907757 167.65014648 156.37231445 C168.31014648 156.37231445 168.97014648 156.37231445 169.65014648 156.37231445 C171.01706562 154.65854627 171.01706562 154.65854627 172.36499023 152.43481445 C175.47755334 147.61001182 178.79440454 142.98397335 182.21264648 138.37231445 C182.80964355 137.56286377 183.40664063 136.75341309 184.02172852 135.91943359 C187.12534593 131.72543313 190.26174939 127.56026325 193.45092773 123.4309082 C194.05155029 122.65295898 194.65217285 121.87500977 195.27099609 121.07348633 C196.42206678 119.58806846 197.57768857 118.10616388 198.73828125 116.62817383 C199.25318115 115.96495117 199.76808105 115.30172852 200.29858398 114.6184082 C200.98186768 113.74720337 200.98186768 113.74720337 201.67895508 112.85839844 C202.83249994 111.38916525 202.83249994 111.38916525 202.65014648 109.37231445 C203.31014648 109.37231445 203.97014648 109.37231445 204.65014648 109.37231445 C207.61250343 105.73907757 207.61250343 105.73907757 208.65014648 101.37231445 C209.31014648 101.37231445 209.97014648 101.37231445 210.65014648 101.37231445 C210.98014648 100.05231445 211.31014648 98.73231445 211.65014648 97.37231445 C197.46014648 97.37231445 183.27014648 97.37231445 168.65014648 97.37231445 Z " fill="#041224" transform="translate(149.349853515625,54.627685546875)"/>
<path d="M0 0 C1.23576908 -0.00455704 2.47153816 -0.00911407 3.74475479 -0.0138092 C5.30168958 -0.02126789 5.30168958 -0.02126789 6.89007759 -0.02887726 C11.21515548 0.04920884 15.48546384 0.4699025 19.77334976 1.0231781 C19.44334976 1.6831781 19.11334976 2.3431781 18.77334976 3.0231781 C-59.76665024 3.0231781 -138.30665024 3.0231781 -219.22665024 3.0231781 C-219.55665024 2.3631781 -219.88665024 1.7031781 -220.22665024 1.0231781 C-192.30553939 0.8923976 -164.38442681 0.76199125 -136.46331215 0.63202667 C-123.49819354 0.5716692 -110.53307553 0.51119067 -97.56795883 0.45042419 C-86.26364285 0.39744207 -74.95932581 0.3446901 -63.65500748 0.29221106 C-57.67306765 0.26443262 -51.69112839 0.23654127 -45.70919037 0.20837402 C-40.07041806 0.18182629 -34.43164439 0.155588 -28.79286957 0.12957954 C-26.73145114 0.12001822 -24.67003321 0.11034712 -22.60861588 0.10055351 C-17.2483017 0.07511942 -11.88798978 0.05177472 -6.52765036 0.0323391 C-4.35175042 0.02367616 -2.17588352 0.01201321 0 0 Z " fill="#7B7C80" transform="translate(349.2266502380371,441.97682189941406)"/>
<path d="M0 0 C16.71990848 -0.07599958 33.31551908 -0.09921286 50 1 C49.67 1.99 49.34 2.98 49 4 C48.360625 3.835 47.72125 3.67 47.0625 3.5 C43.06959439 2.84809704 39.03164292 2.53267793 35 3 C34.34 3.66 33.68 4.32 33 5 C32.505 3.515 32.505 3.515 32 2 C31.01 2.33 30.02 2.66 29 3 C27.09235721 3.07111436 25.18228315 3.08409939 23.2734375 3.0625 C22.1596875 3.05476562 21.0459375 3.04703125 19.8984375 3.0390625 C18.73570312 3.02617187 17.57296875 3.01328125 16.375 3 C14.0703581 2.97461848 11.76566333 2.95354218 9.4609375 2.9375 C8.43790527 2.92589844 7.41487305 2.91429687 6.36083984 2.90234375 C4.04296471 2.73127593 4.04296471 2.73127593 3 4 C2.7686976 6.58956056 2.59653102 9.15874075 2.46484375 11.75390625 C2.42186661 12.52935287 2.37888947 13.3047995 2.33460999 14.10374451 C2.19784452 16.5897794 2.06760606 19.07610854 1.9375 21.5625 C1.84613159 23.24416396 1.75434029 24.925805 1.66210938 26.60742188 C1.43649148 30.73803091 1.21672815 34.86891537 1 39 C0.67 39 0.34 39 0 39 C0 26.13 0 13.26 0 0 Z " fill="#354865" transform="translate(180,187)"/>
<path d="M0 0 C1.95216435 1.95216435 2.84826645 3.53199953 4 6 C4.7425 6 5.485 6 6.25 6 C8.5 6 10.75 6 13 6 C12.319375 7.051875 11.63875 8.10375 10.9375 9.1875 C9.3643405 11.90327009 8.97487487 12.70477974 9.25 15.9375 C9.4975 16.618125 9.745 17.29875 10 18 C7.36 18.66 4.72 19.32 2 20 C2.02320313 20.62648437 2.04640625 21.25296875 2.0703125 21.8984375 C2.09738281 23.12433594 2.09738281 23.12433594 2.125 24.375 C2.14820313 25.18710938 2.17140625 25.99921875 2.1953125 26.8359375 C2 29 2 29 0 31 C0 20.77 0 10.54 0 0 Z " fill="#0E264A" transform="translate(246,227)"/>
<path d="M0 0 C0.66 0 1.32 0 2 0 C2 0.99 2 1.98 2 3 C1.34 3 0.68 3 0 3 C0.33 3.99 0.66 4.98 1 6 C0.375 8.0625 0.375 8.0625 -1 10 C-1.804375 10.268125 -2.60875 10.53625 -3.4375 10.8125 C-6.33228468 11.82095668 -6.33228468 11.82095668 -7.5 15.1875 C-7.83644531 16.11755859 -7.83644531 16.11755859 -8.1796875 17.06640625 C-9.08215588 19.19365315 -10.22234585 20.79353444 -11.625 22.625 C-13.68852043 25.37016382 -14.68247989 27.50727874 -15 31 C-16.98 30.67 -18.96 30.34 -21 30 C-19.65770022 27.13764391 -18.13150835 24.69095987 -16.21484375 22.1796875 C-15.68439453 21.47972656 -15.15394531 20.77976563 -14.60742188 20.05859375 C-14.05634766 19.33800781 -13.50527344 18.61742187 -12.9375 17.875 C-11.84103598 16.43597056 -10.74591788 14.9959143 -9.65234375 13.5546875 C-8.92519165 12.60311768 -8.92519165 12.60311768 -8.18334961 11.63232422 C-6.93153425 9.99881609 -6.93153425 9.99881609 -6 8 C-5.34 8 -4.68 8 -4 8 C-3.71125 7.236875 -3.4225 6.47375 -3.125 5.6875 C-2 3 -2 3 0 0 Z " fill="#394456" transform="translate(358,156)"/>
<path d="M0 0 C17.82 0 35.64 0 54 0 C52 4 52 4 49.875 4.75 C48.946875 4.87375 48.946875 4.87375 48 5 C48 4.34 48 3.68 48 3 C46.78098999 3.00785522 46.78098999 3.00785522 45.53735352 3.01586914 C41.87907678 3.03656994 38.22081233 3.04963803 34.5625 3.0625 C33.28310547 3.07087891 32.00371094 3.07925781 30.68554688 3.08789062 C28.86313477 3.09272461 28.86313477 3.09272461 27.00390625 3.09765625 C25.87799072 3.10289307 24.7520752 3.10812988 23.59204102 3.11352539 C21 3 21 3 20 2 C18.51361008 1.84344973 17.02050873 1.74933057 15.52734375 1.68359375 C14.17866211 1.62075195 14.17866211 1.62075195 12.80273438 1.55664062 C11.85720703 1.51732422 10.91167969 1.47800781 9.9375 1.4375 C8.98810547 1.39431641 8.03871094 1.35113281 7.06054688 1.30664062 C4.70718647 1.20020724 2.35371646 1.09818992 0 1 C0 0.67 0 0.34 0 0 Z " fill="#0C1F37" transform="translate(210,187)"/>
<path d="M0 0 C14.19 0 28.38 0 43 0 C43 0.33 43 0.66 43 1 C30.13 1.33 17.26 1.66 4 2 C3.01 4.31 2.02 6.62 1 9 C0.67 9 0.34 9 0 9 C0 6.03 0 3.06 0 0 Z " fill="#0C2141" transform="translate(181,264)"/>
<path d="M0 0 C2.94150061 2.66312516 4.9928031 5.77245346 7.1875 9.0625 C7.90292969 10.12597656 8.61835938 11.18945312 9.35546875 12.28515625 C11 15 11 15 11 17 C9.68 17.33 8.36 17.66 7 18 C6.36152073 15.52589282 6 13.53730112 6 11 C4.35 11.33 2.7 11.66 1 12 C-0.26237731 9.47524538 -0.09856404 7.68799534 -0.0625 4.875 C-0.05347656 3.96492187 -0.04445312 3.05484375 -0.03515625 2.1171875 C-0.02355469 1.41851562 -0.01195312 0.71984375 0 0 Z " fill="#3E4C5F" transform="translate(256,245)"/>
<path d="M0 0 C1.65 0 3.3 0 5 0 C3.24756719 3.86875878 0.85370412 7.27646801 -1.5625 10.75 C-1.97435547 11.35199219 -2.38621094 11.95398438 -2.81054688 12.57421875 C-3.84605531 14.06901162 -4.91979607 15.53717981 -6 17 C-6.33 17 -6.66 17 -7 17 C-7 14.36 -7 11.72 -7 9 C-6.01 9 -5.02 9 -4 9 C-2.68 6.03 -1.36 3.06 0 0 Z " fill="#404F69" transform="translate(275,203)"/>
<path d="M0 0 C0.99 0.66 1.98 1.32 3 2 C2.67 2.66 2.34 3.32 2 4 C1.34 4 0.68 4 0 4 C-0.433125 5.1446875 -0.433125 5.1446875 -0.875 6.3125 C-2 9 -2 9 -4 12 C-4.66 12 -5.32 12 -6 12 C-6.33 12.99 -6.66 13.98 -7 15 C-7.33 15 -7.66 15 -8 15 C-8.26218749 11.85375007 -8.24754367 10.38162983 -6.5 7.6875 C-6.005 7.130625 -5.51 6.57375 -5 6 C-5.66 5.67 -6.32 5.34 -7 5 C-4.78414572 1.67621858 -3.77126791 1.01180358 0 0 Z " fill="#213047" transform="translate(314,152)"/>
<path d="M0 0 C1.231394 3.69418201 0.64432764 6.2056261 0 10 C-0.99 10 -1.98 10 -3 10 C-3.226875 10.639375 -3.45375 11.27875 -3.6875 11.9375 C-5 14 -5 14 -7.625 14.75 C-8.40875 14.8325 -9.1925 14.915 -10 15 C-10 14.34 -10 13.68 -10 13 C-9.34 13 -8.68 13 -8 13 C-7.79375 12.34 -7.5875 11.68 -7.375 11 C-5.48847129 6.88393737 -2.79432021 3.5412297 0 0 Z " fill="#39485E" transform="translate(327,198)"/>
<path d="M0 0 C3.88975419 3.59054233 6.89732195 7.73898882 10 12 C9.67 12.66 9.34 13.32 9 14 C6.9375 14.625 6.9375 14.625 5 15 C4.67 13.68 4.34 12.36 4 11 C3.34 11 2.68 11 2 11 C0.80712589 7.12315913 0 4.08378077 0 0 Z " fill="#344156" transform="translate(295,303)"/>
<path d="M0 0 C0.99 0 1.98 0 3 0 C3.33 0.99 3.66 1.98 4 3 C4.66 3 5.32 3 6 3 C6.66 2.34 7.32 1.68 8 1 C8.66 1.33 9.32 1.66 10 2 C9.67 2.66 9.34 3.32 9 4 C9.33 4.99 9.66 5.98 10 7 C10.70897318 9.52079352 11 11.34098025 11 14 C10.34 14 9.68 14 9 14 C5 8.58823529 5 8.58823529 5 6 C4.34 6 3.68 6 3 6 C2.01 4.02 1.02 2.04 0 0 Z " fill="#3F4C5F" transform="translate(323,272)"/>
<path d="M0 0 C0.99 0 1.98 0 3 0 C2.67 1.32 2.34 2.64 2 4 C1.34 4 0.68 4 0 4 C0 4.66 0 5.32 0 6 C-1.78398614 7.28006797 -3.62853906 8.47660351 -5.5 9.625 C-6.5209375 10.25664062 -7.541875 10.88828125 -8.59375 11.5390625 C-9.3878125 12.02117187 -10.181875 12.50328125 -11 13 C-11 12.01 -11 11.02 -11 10 C-10.01 10 -9.02 10 -8 10 C-8 9.34 -8 8.68 -8 8 C-8.66 7.67 -9.32 7.34 -10 7 C-7.96202847 5.32595196 -6.46718174 4.10992512 -3.875 3.5 C-1.59876637 3.11426598 -1.59876637 3.11426598 0 0 Z " fill="#34383F" transform="translate(420,420)"/>
<path d="M0 0 C0 0.99 0 1.98 0 3 C-1.98 3.99 -1.98 3.99 -4 5 C-3.773125 5.598125 -3.54625 6.19625 -3.3125 6.8125 C-3.209375 7.534375 -3.10625 8.25625 -3 9 C-4.4375 10.75 -4.4375 10.75 -6 12 C-6.66 11.34 -7.32 10.68 -8 10 C-8.2475 10.804375 -8.495 11.60875 -8.75 12.4375 C-10 15 -10 15 -12.125 15.8125 C-12.74375 15.874375 -13.3625 15.93625 -14 16 C-12.43805642 12.36953654 -10.21034833 9.78806795 -7.5625 6.875 C-6.78003906 6.00617188 -5.99757813 5.13734375 -5.19140625 4.2421875 C-3 2 -3 2 0 0 Z " fill="#626970" transform="translate(83,71)"/>
<path d="M0 0 C4 2 4 2 6 4 C4.02 6.97 2.04 9.94 0 13 C-0.33 12.34 -0.66 11.68 -1 11 C-3.02463255 10.34786708 -3.02463255 10.34786708 -5 10 C-3.68 9.67 -2.36 9.34 -1 9 C-0.67 6.03 -0.34 3.06 0 0 Z " fill="#1D304C" transform="translate(296,170)"/>
<path d="M0 0 C1 3 1 3 2 6 C1.34 6 0.68 6 0 6 C-0.268125 6.598125 -0.53625 7.19625 -0.8125 7.8125 C-1.98493467 9.97224808 -3.19369282 11.35790256 -5 13 C-5.99 12.67 -6.98 12.34 -8 12 C-6.59023295 8.96147295 -4.91129772 6.4060405 -2.875 3.75 C-2.06675781 2.69039062 -2.06675781 2.69039062 -1.2421875 1.609375 C-0.83226562 1.07828125 -0.42234375 0.5471875 0 0 Z " fill="#2E3F56" transform="translate(336,186)"/>
<path d="M0 0 C0.66 0.33 1.32 0.66 2 1 C2 1.66 2 2.32 2 3 C3.32 3.66 4.64 4.32 6 5 C6 6.32 6 7.64 6 9 C5.01 9 4.02 9 3 9 C2.67 9.66 2.34 10.32 2 11 C-0.475 7.04 -0.475 7.04 -3 3 C-2.01 3 -1.02 3 0 3 C0 2.01 0 1.02 0 0 Z " fill="#27364E" transform="translate(346,297)"/>
<path d="M0 0 C0.66 0 1.32 0 2 0 C2 0.99 2 1.98 2 3 C1.34 3 0.68 3 0 3 C0.33 3.99 0.66 4.98 1 6 C0.375 8.0625 0.375 8.0625 -1 10 C-2.64363134 10.72159424 -4.31050386 11.39351421 -6 12 C-6.33 12.66 -6.66 13.32 -7 14 C-7.66 13.67 -8.32 13.34 -9 13 C-7.625 10.5 -7.625 10.5 -6 8 C-5.34 8 -4.68 8 -4 8 C-3.566875 6.8553125 -3.566875 6.8553125 -3.125 5.6875 C-2 3 -2 3 0 0 Z " fill="#47505E" transform="translate(358,156)"/>
<path d="M0 0 C0.33 0 0.66 0 1 0 C1.33 2.64 1.66 5.28 2 8 C1.01 8 0.02 8 -1 8 C-0.814375 9.9490625 -0.814375 9.9490625 -0.625 11.9375 C-0.55539063 12.66839844 -0.48578125 13.39929688 -0.4140625 14.15234375 C-0.27742188 14.76207031 -0.14078125 15.37179688 0 16 C0.66 16.33 1.32 16.66 2 17 C1.34 18.32 0.68 19.64 0 21 C-0.99 21 -1.98 21 -3 21 C-2.22095672 6.21867882 -2.22095672 6.21867882 0 0 Z " fill="#363943" transform="translate(59,105)"/>
<path d="M0 0 C1.98 0 3.96 0 6 0 C6 0.99 6 1.98 6 3 C5.34 3.66 4.68 4.32 4 5 C4.5259375 5.928125 4.5259375 5.928125 5.0625 6.875 C5.371875 7.57625 5.68125 8.2775 6 9 C5.67 9.66 5.34 10.32 5 11 C3.96680187 9.7391988 2.94875621 8.46596742 1.9375 7.1875 C1.08478516 6.12595703 1.08478516 6.12595703 0.21484375 5.04296875 C-0.18605469 4.36878906 -0.58695312 3.69460938 -1 3 C-0.67 2.01 -0.34 1.02 0 0 Z " fill="#384659" transform="translate(337,288)"/>
<path d="M0 0 C3.0831351 1.19899698 6.06279492 2.47700477 9 4 C9 7.10551666 8.4606285 8.35261084 7 11 C5.82750647 9.54634731 4.66216184 8.08692581 3.5 6.625 C2.52546875 5.40683594 2.52546875 5.40683594 1.53125 4.1640625 C0 2 0 2 0 0 Z " fill="#3A4962" transform="translate(298,237)"/>
<path d="M0 0 C0.33 0.66 0.66 1.32 1 2 C1.66 2.33 2.32 2.66 3 3 C0.69 5.97 -1.62 8.94 -4 12 C-4.99 11.34 -5.98 10.68 -7 10 C-6.34 9.01 -5.68 8.02 -5 7 C-4.34 7 -3.68 7 -3 7 C-3.33 6.01 -3.66 5.02 -4 4 C-2.68 2.68 -1.36 1.36 0 0 Z " fill="#4B5771" transform="translate(285,191)"/>
<path d="M0 0 C0 1.65 0 3.3 0 5 C-7.28571429 8.42857143 -7.28571429 8.42857143 -12 8 C-10.88625 7.13375 -10.88625 7.13375 -9.75 6.25 C-7.00740053 4.10390345 -7.00740053 4.10390345 -4.875 1.75 C-3 0 -3 0 0 0 Z " fill="#2F353F" transform="translate(400,433)"/>
<path d="M0 0 C0.33 0 0.66 0 1 0 C1 8.91 1 17.82 1 27 C1.66 27 2.32 27 3 27 C2.01 29.475 2.01 29.475 1 32 C0.67 32 0.34 32 0 32 C0 21.44 0 10.88 0 0 Z " fill="#07132C" transform="translate(245,232)"/>
<path d="M0 0 C1.875 0.1875 1.875 0.1875 4 1 C5.78284814 4.29826907 6 6.1774751 6 10 C5.01 10 4.02 10 3 10 C2.67 9.01 2.34 8.02 2 7 C0.50014391 5.33289654 0.50014391 5.33289654 -1 4 C-0.34 3.67 0.32 3.34 1 3 C0.67 2.01 0.34 1.02 0 0 Z " fill="#030A16" transform="translate(434,99)"/>
<path d="M0 0 C1.8125 0.1875 1.8125 0.1875 4 1 C7 5.17857143 7 5.17857143 7 8 C7.66 8 8.32 8 9 8 C9.33 9.65 9.66 11.3 10 13 C9.34 13 8.68 13 8 13 C6.55473264 11.26451831 5.1912778 9.46024037 3.875 7.625 C3.15054687 6.62726563 2.42609375 5.62953125 1.6796875 4.6015625 C0 2 0 2 0 0 Z " fill="#424D60" transform="translate(309,252)"/>
<path d="M0 0 C0.66 0.99 1.32 1.98 2 3 C0.02 3.99 0.02 3.99 -2 5 C-1.67 5.99 -1.34 6.98 -1 8 C-3.31 9.98 -5.62 11.96 -8 14 C-8.66 13.67 -9.32 13.34 -10 13 C-9.21654285 11.82780457 -8.42297164 10.66236332 -7.625 9.5 C-7.18414062 8.8503125 -6.74328125 8.200625 -6.2890625 7.53125 C-5.86367188 7.0259375 -5.43828125 6.520625 -5 6 C-4.34 6 -3.68 6 -3 6 C-2.690625 5.195625 -2.38125 4.39125 -2.0625 3.5625 C-1 1 -1 1 0 0 Z M-1 6 C1 7 1 7 1 7 Z " fill="#34445C" transform="translate(316,213)"/>
<path d="M0 0 C1.32 0 2.64 0 4 0 C4 1.65 4 3.3 4 5 C5.98 5 7.96 5 10 5 C10 5.33 10 5.66 10 6 C8.88625 6.12375 7.7725 6.2475 6.625 6.375 C2.96896323 6.6465813 2.96896323 6.6465813 1 9 C1 8.34 1 7.68 1 7 C0.34 7 -0.32 7 -1 7 C-1.125 2.25 -1.125 2.25 0 0 Z " fill="#0C1C35" transform="translate(316,144)"/>
<path d="M0 0 C-3.1254959 2.64465038 -6.08788267 3.84414715 -10 5 C-10.33 4.34 -10.66 3.68 -11 3 C-11.33 3.66 -11.66 4.32 -12 5 C-14.31 4.67 -16.62 4.34 -19 4 C-16.05075061 2.37893452 -13.36193006 1.51556732 -10.0625 0.875 C-8.81146484 0.62363281 -8.81146484 0.62363281 -7.53515625 0.3671875 C-4.98541981 -0.00211177 -2.57240933 -0.06442528 0 0 Z " fill="#595D64" transform="translate(123,56)"/>
<path d="M0 0 C4.47667325 1.03307844 6.39746095 3.33716727 9 7 C4.24518354 6.42365861 1.02951788 4.44931479 -3 2 C-2.01 1.34 -1.02 0.68 0 0 Z " fill="#3D3F47" transform="translate(95,432)"/>
<path d="M0 0 C2.79872437 2.52788007 4.45773019 4.20411134 5 8 C4.01 8.33 3.02 8.66 2 9 C1.34 8.67 0.68 8.34 0 8 C-0.33 8.66 -0.66 9.32 -1 10 C-0.979375 9.05125 -0.95875 8.1025 -0.9375 7.125 C-0.77448174 4.09333717 -0.77448174 4.09333717 -2 2 C-1.34 2 -0.68 2 0 2 C0 1.34 0 0.68 0 0 Z " fill="#35445E" transform="translate(282,283)"/>
<path d="M0 0 C-0.66 2.64 -1.32 5.28 -2 8 C-4.97 7.505 -4.97 7.505 -8 7 C-6.47663111 3.31852519 -4.31953005 0 0 0 Z " fill="#202C46" transform="translate(345,179)"/>
<path d="M0 0 C2.0625 0.4375 2.0625 0.4375 4 1 C4 1.66 4 2.32 4 3 C3.34 3 2.68 3 2 3 C1.7525 3.5775 1.505 4.155 1.25 4.75 C-0.16683317 7.3002997 -1.87627537 9.01785701 -4 11 C-3.125 6.25 -3.125 6.25 -2 4 C-1.34 4 -0.68 4 0 4 C-0.33 3.01 -0.66 2.02 -1 1 C-0.67 0.67 -0.34 0.34 0 0 Z " fill="#40444B" transform="translate(429,409)"/>
<path d="M0 0 C0.33 0.99 0.66 1.98 1 3 C1.99 3 2.98 3 4 3 C4 3.66 4 4.32 4 5 C2.865625 5.268125 1.73125 5.53625 0.5625 5.8125 C-1.2009375 6.4003125 -1.2009375 6.4003125 -3 7 C-3.33 7.99 -3.66 8.98 -4 10 C-4.66 10 -5.32 10 -6 10 C-4.34832443 6.4213696 -2.21713508 3.25179812 0 0 Z " fill="#424F66" transform="translate(305,227)"/>
<path d="M0 0 C2.631724 2.45627573 4.81527263 4.55352037 6 8 C5.625 10.25 5.625 10.25 5 12 C4.67 11.01 4.34 10.02 4 9 C1.99983534 7.79117904 1.99983534 7.79117904 0 7 C0.33 6.34 0.66 5.68 1 5 C0.01 4.34 -0.98 3.68 -2 3 C-1.34 2.01 -0.68 1.02 0 0 Z " fill="#454851" transform="translate(433,91)"/>
<path d="M0 0 C1.65 0 3.3 0 5 0 C5.33 0.99 5.66 1.98 6 3 C3.37801226 5.15377564 1.35595828 6.40072174 -2 7 C-2 6.34 -2 5.68 -2 5 C-1.34 5 -0.68 5 0 5 C0 3.35 0 1.7 0 0 Z " fill="#0E192D" transform="translate(360,154)"/>
<path d="M0 0 C1 3 1 3 -0.25 5.625 C-2 8 -2 8 -5 9 C-5.66 9 -6.32 9 -7 9 C-7 6 -7 6 -5.46875 4.39453125 C-4.49421875 3.61142578 -4.49421875 3.61142578 -3.5 2.8125 C-2.8503125 2.28269531 -2.200625 1.75289063 -1.53125 1.20703125 C-1.0259375 0.80871094 -0.520625 0.41039063 0 0 Z " fill="#020914" transform="translate(86,70)"/>
<path d="M0 0 C2.475 0.495 2.475 0.495 5 1 C5 2.65 5 4.3 5 6 C4.01 6.495 4.01 6.495 3 7 C2.01 6.67 1.02 6.34 0 6 C0 4.02 0 2.04 0 0 Z " fill="#020A17" transform="translate(58,113)"/>
<path d="M0 0 C0.66 0.33 1.32 0.66 2 1 C2 1.66 2 2.32 2 3 C2.66 3 3.32 3 4 3 C6 6 6 6 5.625 8.6875 C5.41875 9.450625 5.2125 10.21375 5 11 C4.34 10.67 3.68 10.34 3 10 C3.33 8.68 3.66 7.36 4 6 C2.35 6 0.7 6 -1 6 C-1 5.34 -1 4.68 -1 4 C-0.34 4 0.32 4 1 4 C0.67 2.68 0.34 1.36 0 0 Z " fill="#425167" transform="translate(269,265)"/>
<path d="M0 0 C1.96446905 1.6344795 2.92317791 2.46429394 3.29296875 5.04296875 C3.1953125 7.02864583 3.09765625 9.01432292 3 11 C2.01 11.495 2.01 11.495 1 12 C-0.26237731 9.47524538 -0.09856404 7.68799534 -0.0625 4.875 C-0.05347656 3.96492187 -0.04445312 3.05484375 -0.03515625 2.1171875 C-0.02355469 1.41851562 -0.01195312 0.71984375 0 0 Z " fill="#2E415B" transform="translate(256,245)"/>
<path d="M0 0 C3.08089673 2.77280706 4.68775452 5.06326356 6 9 C3.28071483 8.62492618 2.15781339 8.15781339 0.1875 6.1875 C-1 4 -1 4 -0.6875 1.75 C-0.460625 1.1725 -0.23375 0.595 0 0 Z " fill="#3E495C" transform="translate(289,294)"/>
<path d="M0 0 C0.33 0 0.66 0 1 0 C1.19430855 2.6246601 1.38073238 5.24946765 1.5625 7.875 C1.61857422 8.62136719 1.67464844 9.36773437 1.73242188 10.13671875 C2.11328125 15.7734375 2.11328125 15.7734375 1 18 C0.34 17.67 -0.32 17.34 -1 17 C-0.67 12.71 -0.34 8.42 0 4 C-0.66 3.67 -1.32 3.34 -2 3 C-1.34 3 -0.68 3 0 3 C0 2.01 0 1.02 0 0 Z " fill="#08162C" transform="translate(138,204)"/>
<path d="M0 0 C0.66 0.66 1.32 1.32 2 2 C0.625 3.5 0.625 3.5 -1 5 C-1.66 5 -2.32 5 -3 5 C-3.33 5.66 -3.66 6.32 -4 7 C-4.66 5.35 -5.32 3.7 -6 2 C-4.02 1.34 -2.04 0.68 0 0 Z " fill="#334157" transform="translate(326,265)"/>
<path d="M0 0 C1.65 0 3.3 0 5 0 C6.47075246 4.41225737 7.36884358 7.48281619 6 12 C5.67 12 5.34 12 5 12 C5 9.03 5 6.06 5 3 C3.35 2.67 1.7 2.34 0 2 C0 1.34 0 0.68 0 0 Z " fill="#07162F" transform="translate(258,148)"/>
<path d="M0 0 C2.46278801 2.46278801 2.99771255 4.70676982 4 8 C2.35 7.67 0.7 7.34 -1 7 C-1.04254356 5.00045254 -1.04080783 2.99958364 -1 1 C-0.67 0.67 -0.34 0.34 0 0 Z " fill="#25344F" transform="translate(252,237)"/>
<path d="M0 0 C0 3 0 3 -1 5 C-1.66 5 -2.32 5 -3 5 C-3.33 5.99 -3.66 6.98 -4 8 C-4.33 8 -4.66 8 -5 8 C-5.3125 5.6875 -5.3125 5.6875 -5 3 C-2.5 1.1875 -2.5 1.1875 0 0 Z " fill="#424C5E" transform="translate(311,159)"/>
<path d="M0 0 C1.32 0.33 2.64 0.66 4 1 C2.92598892 3.91517292 2.22189824 5.77810176 0 8 C0 5.36 0 2.72 0 0 Z " fill="#2D3D57" transform="translate(268,212)"/>
<path d="M0 0 C2.0625 0.4375 2.0625 0.4375 4 1 C2.35 2.65 0.7 4.3 -1 6 C-1.66 5.67 -2.32 5.34 -3 5 C-1.125 1.125 -1.125 1.125 0 0 Z " fill="#030917" transform="translate(120,57)"/>
<path d="M0 0 C0.33 0.66 0.66 1.32 1 2 C1.66 2 2.32 2 3 2 C3.99 3.98 4.98 5.96 6 8 C4.02 7.34 2.04 6.68 0 6 C0 4.02 0 2.04 0 0 Z " fill="#50596A" transform="translate(307,320)"/>
<path d="M0 0 C0.33 0 0.66 0 1 0 C1.33 2.64 1.66 5.28 2 8 C1.01 8 0.02 8 -1 8 C-1 9.98 -1 11.96 -1 14 C-1.33 14 -1.66 14 -2 14 C-2.21192221 8.80790596 -1.5912689 4.873261 0 0 Z " fill="#63696F" transform="translate(59,105)"/>
<path d="M0 0 C0.33 0.66 0.66 1.32 1 2 C1.66 2.33 2.32 2.66 3 3 C0.525 4.485 0.525 4.485 -2 6 C-2.66 5.34 -3.32 4.68 -4 4 C-2.68 2.68 -1.36 1.36 0 0 Z " fill="#2A3D56" transform="translate(285,191)"/>
<path d="M0 0 C-1.15173355 2.46800047 -2.04783565 4.04783565 -4 6 C-4 5.34 -4 4.68 -4 4 C-5.32 3.67 -6.64 3.34 -8 3 C-8 2.67 -8 2.34 -8 2 C-2.25 0 -2.25 0 0 0 Z " fill="#3F4D61" transform="translate(299,177)"/>
<path d="M0 0 C0.625 1.8125 0.625 1.8125 1 4 C-1.0072908 7.0109362 -1.83884224 7.63016497 -5 9 C-5.33 8.34 -5.66 7.68 -6 7 C-4.7934375 6.6596875 -4.7934375 6.6596875 -3.5625 6.3125 C-2.716875 5.879375 -1.87125 5.44625 -1 5 C-0.10613836 2.45224694 -0.10613836 2.45224694 0 0 Z " fill="#0C1E3B" transform="translate(312,220)"/>
<path d="M0 0 C1.98 0.495 1.98 0.495 4 1 C2.02 3.97 2.02 3.97 0 7 C-0.93423645 3.98968256 -1.04449911 3.13349732 0 0 Z " fill="#535E72" transform="translate(264,220)"/>
<path d="M0 0 C0.66 0.33 1.32 0.66 2 1 C3.87056791 1.2275015 5.74685958 1.40962811 7.625 1.5625 C8.62789062 1.64628906 9.63078125 1.73007813 10.6640625 1.81640625 C11.43492187 1.87699219 12.20578125 1.93757812 13 2 C13 2.33 13 2.66 13 3 C10.87527424 3.05386629 8.75016348 3.09273071 6.625 3.125 C4.84996094 3.15980469 4.84996094 3.15980469 3.0390625 3.1953125 C0 3 0 3 -2 1 C-1.34 0.67 -0.68 0.34 0 0 Z " fill="#09172D" transform="translate(142,147)"/>
<path d="M0 0 C0 0.99 0 1.98 0 3 C-0.66 3 -1.32 3 -2 3 C-3.62514468 4.45833358 -3.62514468 4.45833358 -5 6 C-5.99 5.34 -6.98 4.68 -8 4 C-5.36 2.68 -2.72 1.36 0 0 Z " fill="#54575F" transform="translate(98,62)"/>
<path d="M0 0 C1.65 0 3.3 0 5 0 C3.95125002 2.62187494 3.35068687 3.79371361 0.875 5.25 C0.25625 5.4975 -0.3625 5.745 -1 6 C-1 5.01 -1 4.02 -1 3 C-0.01 3 0.98 3 2 3 C2 2.34 2 1.68 2 1 C1.34 0.67 0.68 0.34 0 0 Z " fill="#3E4149" transform="translate(410,427)"/>
<path d="M0 0 C0.66 0.99 1.32 1.98 2 3 C1.03114628 4.68496298 0.03013277 6.35178756 -1 8 C-1.33 8 -1.66 8 -2 8 C-1.125 1.125 -1.125 1.125 0 0 Z " fill="#485570" transform="translate(261,225)"/>
<path d="M0 0 C0.66 0.33 1.32 0.66 2 1 C1.3125 3.375 1.3125 3.375 0 6 C-2.625 7.3125 -2.625 7.3125 -5 8 C-3.35 5.36 -1.7 2.72 0 0 Z " fill="#575F78" transform="translate(311,219)"/>
<path d="M0 0 C0.33 0.66 0.66 1.32 1 2 C0.0625 4.625 0.0625 4.625 -1 7 C-1.99 7 -2.98 7 -4 7 C-2.92598892 4.08482708 -2.22189824 2.22189824 0 0 Z " fill="#606877" transform="translate(336,186)"/>
</svg>
