<?xml version="1.0" encoding="UTF-8"?>
<svg version="1.1" xmlns="http://www.w3.org/2000/svg" width="203" height="191">
<path d="M0 0 C66.99 0 133.98 0 203 0 C203 63.03 203 126.06 203 191 C136.01 191 69.02 191 0 191 C0 127.97 0 64.94 0 0 Z " fill="#F7F7F7" transform="translate(0,0)"/>
<path d="M0 0 C0 9.24 0 18.48 0 28 C-3.84591797 28.07347656 -3.84591797 28.07347656 -7.76953125 28.1484375 C-10.25176854 28.20244219 -12.73390903 28.25975165 -15.21606445 28.31738281 C-16.94157708 28.35567345 -18.66716956 28.39052621 -20.39282227 28.421875 C-22.87284895 28.46752404 -25.35232591 28.52551781 -27.83203125 28.5859375 C-28.98998955 28.60326431 -28.98998955 28.60326431 -30.17134094 28.62094116 C-33.95246674 28.72521273 -35.78018835 28.8534589 -39 31 C-39.40197129 33.10310382 -39.40197129 33.10310382 -39.25 35.4375 C-39.23453125 36.21996094 -39.2190625 37.00242188 -39.203125 37.80859375 C-39.0673481 40.17681959 -39.0673481 40.17681959 -38 43 C-17.705 43.495 -17.705 43.495 3 44 C3 58.19 3 72.38 3 87 C-12.84 87 -28.68 87 -45 87 C-45 86.34 -45 85.68 -45 85 C-45.85658203 84.99613281 -45.85658203 84.99613281 -46.73046875 84.9921875 C-57.71894843 84.46809467 -67.0851149 79.89474678 -74.51171875 71.83203125 C-77.57334224 68.06326113 -78 67.14950174 -78 62 C-74.37 62.33 -70.74 62.66 -67 63 C-64.34138079 59.03873356 -62.97794408 55.0801499 -61.8125 50.5 C-61.63525391 49.84902344 -61.45800781 49.19804687 -61.27539062 48.52734375 C-60.34715583 44.9792648 -59.49384137 41.66143324 -60 38 C-62.90412546 35.64677204 -62.90412546 35.64677204 -66 34 C-65.56252877 29.21406478 -63.31699851 26.55175993 -60.125 23.1875 C-59.63757324 22.66486572 -59.15014648 22.14223145 -58.64794922 21.60375977 C-52.94508502 15.65680054 -43.71995795 6.38133053 -35.1875 5.8125 C-34.465625 5.874375 -33.74375 5.93625 -33 6 C-33 5.34 -33 4.68 -33 4 C-22.04020871 -1.08280176 -11.9120929 -0.30543828 0 0 Z " fill="#110F12" transform="translate(91,80)"/>
<path d="M0 0 C7.734375 -0.061875 15.46875 -0.12375 23.4375 -0.1875 C25.86150146 -0.21481201 28.28550293 -0.24212402 30.78295898 -0.27026367 C32.72899886 -0.27903496 34.67504428 -0.28667737 36.62109375 -0.29296875 C37.6114563 -0.30831665 38.60181885 -0.32366455 39.62219238 -0.33947754 C45.98914615 -0.34184884 51.10179962 0.62893353 57 3 C58.155 3.4125 59.31 3.825 60.5 4.25 C71.26858043 9.63429022 78.92513871 17.694872 83 29 C86.13813207 39.96985556 85.08284422 53.99882176 79.93359375 64.08984375 C76.52044091 69.95866432 72.19107559 76.37051459 66.0625 79.5 C65.381875 79.665 64.70125 79.83 64 80 C64 80.66 64 81.32 64 82 C62.75336669 82.50833591 61.50250613 83.00631145 60.25 83.5 C59.55390625 83.7784375 58.8578125 84.056875 58.140625 84.34375 C56 85 56 85 52 85 C52 85.66 52 86.32 52 87 C47.37540756 88.17700048 42.92133538 88.11408412 38.1875 88.0625 C37.00510742 88.05573242 37.00510742 88.05573242 35.79882812 88.04882812 C33.86585239 88.03711312 31.93291607 88.01917998 30 88 C30 83.71 30 79.42 30 75 C24.39 75 18.78 75 13 75 C13 54.54 13 34.08 13 13 C41 13 41 13 45 14 C45 14.66 45 15.32 45 16 C45.721875 16.04125 46.44375 16.0825 47.1875 16.125 C50.31672736 17.0985374 52.05266214 18.37951622 54.046875 20.9921875 C56.02139392 25.15162489 55.7361842 29.54310108 55 34 C53.125 37.5 53.125 37.5 51 40 C50.34 40.99 49.68 41.98 49 43 C49.7425 43.226875 50.485 43.45375 51.25 43.6875 C54.55765809 45.266155 55.94858409 46.99614099 58 50 C59.6940534 55.08216019 59.58200748 59.28399412 57.3125 64.125 C54.64691214 68.93424244 51.95521995 72.21039194 46.75 74.3125 C42.36817265 75.11583501 38.44894155 75.13689051 34 75 C34 69.39 34 63.78 34 58 C36.64 58 39.28 58 42 58 C42 56.68 42 55.36 42 54 C39.36 53.67 36.72 53.34 34 53 C34 47.39 34 41.78 34 36 C35.65 36 37.3 36 39 36 C39 34.35 39 32.7 39 31 C36.69 31 34.38 31 32 31 C32 47.17 32 63.34 32 80 C51.69259852 79.18614259 51.69259852 79.18614259 67 69 C74.4936692 60.03377572 76.62177784 51.29556521 76.34375 39.72265625 C75.48170154 30.38706325 71.9470185 23.29573551 65 17 C63.36165371 15.95424705 61.70632228 14.93072125 60 14 C60 13.34 60 12.68 60 12 C57.69 11.67 55.38 11.34 53 11 C53 10.34 53 9.68 53 9 C37.49 8.67 21.98 8.34 6 8 C6 31.76 6 55.52 6 80 C12.6 80 19.2 80 26 80 C26 82.31 26 84.62 26 87 C17.42 87 8.84 87 0 87 C0 58.29 0 29.58 0 0 Z " fill="#F70F0E" transform="translate(101,32)"/>
<path d="M0 0 C1.07487167 0.00141495 2.14974335 0.0028299 3.25718689 0.00428772 C6.65976858 0.00984474 10.06228226 0.02238912 13.46484375 0.03515625 C15.78450425 0.04017681 18.10416579 0.04473874 20.42382812 0.04882812 C26.08338004 0.05894531 31.74278658 0.07852894 37.40234375 0.09765625 C37.40234375 12.63765625 37.40234375 25.17765625 37.40234375 38.09765625 C34.26734375 38.38640625 31.13234375 38.67515625 27.90234375 38.97265625 C25.96464361 39.16070945 24.02710513 39.35044808 22.08984375 39.54296875 C18.69560941 39.87944659 15.30212828 40.1908174 11.90234375 40.46484375 C3.6592584 41.20991459 -2.62364636 42.98200126 -9.92578125 46.85546875 C-12.59765625 48.09765625 -12.59765625 48.09765625 -16.59765625 48.09765625 C-16.59765625 48.75765625 -16.59765625 49.41765625 -16.59765625 50.09765625 C-17.19191406 50.35417969 -17.78617188 50.61070313 -18.3984375 50.875 C-29.61461893 56.05572455 -38.10720862 64.28881683 -46.59765625 73.09765625 C-47.59629848 74.09901218 -48.59606601 75.09924903 -49.59765625 76.09765625 C-49.72249263 70.21190882 -49.81257214 64.32695427 -49.87231445 58.44018555 C-49.89725335 56.44330396 -49.93121735 54.44651169 -49.97485352 52.44995117 C-50.27862654 38.1797665 -49.96337785 25.51526975 -40.390625 13.94921875 C-30.702902 3.9449035 -30.702902 3.9449035 -23.97265625 3.09765625 C-22.85890625 3.09765625 -21.74515625 3.09765625 -20.59765625 3.09765625 C-20.59765625 2.43765625 -20.59765625 1.77765625 -20.59765625 1.09765625 C-13.69154282 0.19414028 -6.9601967 -0.03503495 0 0 Z " fill="#FB0403" transform="translate(56.59765625,15.90234375)"/>
<path d="M0 0 C1.10117409 -0.01073296 1.10117409 -0.01073296 2.22459412 -0.02168274 C4.63597035 -0.0385052 7.04547045 -0.0192095 9.45678711 0.00219727 C11.14017388 0.00136805 12.82356057 -0.00109332 14.50694275 -0.00511169 C18.02831505 -0.00796513 21.54904969 0.00668801 25.0703125 0.03417969 C29.57868216 0.06828849 34.08591402 0.06223153 38.59433842 0.04351711 C42.0680028 0.03293819 45.54140339 0.0418925 49.01504326 0.05690193 C50.67718154 0.06207592 52.33934745 0.06161145 54.00148201 0.05535698 C56.32580757 0.04989267 58.64851521 0.07031492 60.97265625 0.09765625 C61.99753647 0.08786743 61.99753647 0.08786743 63.04312134 0.07788086 C67.73378648 0.17148007 70.16854925 1.26522339 73.42163086 4.63110352 C74.49392852 7.97414915 74.93565881 10.25764259 73.68334961 13.60375977 C71.93640417 16.88855678 71.01861588 18.43210851 67.42163086 19.63110352 C65.19588751 19.8556181 62.96581567 20.03893229 60.73413086 20.19360352 C58.96489258 20.31928711 58.96489258 20.31928711 57.15991211 20.44750977 C55.80446289 20.53838867 55.80446289 20.53838867 54.42163086 20.63110352 C55.41163086 22.11610352 55.41163086 22.11610352 56.42163086 23.63110352 C56.04663086 26.31860352 56.04663086 26.31860352 55.42163086 28.63110352 C53.77163086 28.96110352 52.12163086 29.29110352 50.42163086 29.63110352 C50.42163086 28.97110352 50.42163086 28.31110352 50.42163086 27.63110352 C51.41163086 27.13610352 51.41163086 27.13610352 52.42163086 26.63110352 C52.91663086 25.14610352 52.91663086 25.14610352 53.42163086 23.63110352 C52.10163086 23.63110352 50.78163086 23.63110352 49.42163086 23.63110352 C49.42163086 25.61110352 49.42163086 27.59110352 49.42163086 29.63110352 C48.43163086 29.63110352 47.44163086 29.63110352 46.42163086 29.63110352 C46.42163086 26.33110352 46.42163086 23.03110352 46.42163086 19.63110352 C45.76163086 19.63110352 45.10163086 19.63110352 44.42163086 19.63110352 C44.42163086 23.26110352 44.42163086 26.89110352 44.42163086 30.63110352 C42.77163086 30.63110352 41.12163086 30.63110352 39.42163086 30.63110352 C37.93056629 27.64897438 38.30221619 24.91500694 38.42163086 21.63110352 C38.91663086 21.13610352 38.91663086 21.13610352 39.42163086 20.63110352 C38.76163086 20.30110352 38.10163086 19.97110352 37.42163086 19.63110352 C37.42163086 20.95110352 37.42163086 22.27110352 37.42163086 23.63110352 C36.43163086 23.63110352 35.44163086 23.63110352 34.42163086 23.63110352 C34.42163086 25.94110352 34.42163086 28.25110352 34.42163086 30.63110352 C33.43163086 30.63110352 32.44163086 30.63110352 31.42163086 30.63110352 C31.42163086 28.32110352 31.42163086 26.01110352 31.42163086 23.63110352 C30.76163086 23.63110352 30.10163086 23.63110352 29.42163086 23.63110352 C29.42163086 22.31110352 29.42163086 20.99110352 29.42163086 19.63110352 C28.76163086 19.63110352 28.10163086 19.63110352 27.42163086 19.63110352 C27.42163086 23.26110352 27.42163086 26.89110352 27.42163086 30.63110352 C26.43163086 30.63110352 25.44163086 30.63110352 24.42163086 30.63110352 C23.92663086 26.67110352 23.92663086 26.67110352 23.42163086 22.63110352 C23.27725586 23.76547852 23.13288086 24.89985352 22.98413086 26.06860352 C22.42163086 29.63110352 22.42163086 29.63110352 21.42163086 30.63110352 C19.7355412 30.70315863 18.04662427 30.71496419 16.35913086 30.69360352 C15.4400293 30.68458008 14.52092773 30.67555664 13.57397461 30.66625977 C12.86370117 30.6546582 12.15342773 30.64305664 11.42163086 30.63110352 C11.39462656 29.1728714 11.37523299 27.71449676 11.35913086 26.25610352 C11.3475293 25.44399414 11.33592773 24.63188477 11.32397461 23.79516602 C11.42163086 21.63110352 11.42163086 21.63110352 12.42163086 19.63110352 C11.10163086 19.63110352 9.78163086 19.63110352 8.42163086 19.63110352 C8.42163086 23.26110352 8.42163086 26.89110352 8.42163086 30.63110352 C7.43163086 30.63110352 6.44163086 30.63110352 5.42163086 30.63110352 C5.42163086 27.00110352 5.42163086 23.37110352 5.42163086 19.63110352 C4.43163086 19.63110352 3.44163086 19.63110352 2.42163086 19.63110352 C2.75163086 22.93110352 3.08163086 26.23110352 3.42163086 29.63110352 C2.10163086 29.30110352 0.78163086 28.97110352 -0.57836914 28.63110352 C-0.57836914 25.66110352 -0.57836914 22.69110352 -0.57836914 19.63110352 C-2.68211914 19.56922852 -2.68211914 19.56922852 -4.82836914 19.50610352 C-8.6287674 19.07519222 -9.33917194 18.8761348 -12.14086914 16.00610352 C-13.81550497 12.07434984 -14.34556514 9.85068149 -13.57836914 5.63110352 C-9.29549288 1.16461027 -6.22545224 -0.10684983 0 0 Z " fill="#2C2B2D" transform="translate(114.578369140625,121.368896484375)"/>
<path d="M0 0 C7.734375 -0.061875 15.46875 -0.12375 23.4375 -0.1875 C25.86150146 -0.21481201 28.28550293 -0.24212402 30.78295898 -0.27026367 C32.72899886 -0.27903496 34.67504428 -0.28667737 36.62109375 -0.29296875 C37.6114563 -0.30831665 38.60181885 -0.32366455 39.62219238 -0.33947754 C45.98914615 -0.34184884 51.10179962 0.62893353 57 3 C58.155 3.4125 59.31 3.825 60.5 4.25 C71.26858043 9.63429022 78.92513871 17.694872 83 29 C86.13813207 39.96985556 85.08284422 53.99882176 79.93359375 64.08984375 C76.52044091 69.95866432 72.19107559 76.37051459 66.0625 79.5 C65.381875 79.665 64.70125 79.83 64 80 C64 80.66 64 81.32 64 82 C62.75336669 82.50833591 61.50250613 83.00631145 60.25 83.5 C59.55390625 83.7784375 58.8578125 84.056875 58.140625 84.34375 C56 85 56 85 52 85 C52 85.66 52 86.32 52 87 C45.07 87 38.14 87 31 87 C31 84.69 31 82.38 31 80 C32.11117187 79.96261719 33.22234375 79.92523438 34.3671875 79.88671875 C47.14303104 79.36637049 57.4675612 78.42287053 67 69 C74.4936692 60.03377572 76.62177784 51.29556521 76.34375 39.72265625 C75.48170154 30.38706325 71.9470185 23.29573551 65 17 C63.36165371 15.95424705 61.70632228 14.93072125 60 14 C60 13.34 60 12.68 60 12 C57.69 11.67 55.38 11.34 53 11 C53 10.34 53 9.68 53 9 C37.49 8.67 21.98 8.34 6 8 C6 31.76 6 55.52 6 80 C12.6 80 19.2 80 26 80 C26 82.31 26 84.62 26 87 C17.42 87 8.84 87 0 87 C0 58.29 0 29.58 0 0 Z " fill="#171517" transform="translate(101,32)"/>
<path d="M0 0 C0.33 0.66 0.66 1.32 1 2 C2.66072849 2.68132451 4.327767 3.34742127 6 4 C6.66 4.66 7.32 5.32 8 6 C7.53620997 14.34822061 6.16281872 25.83718128 0 32 C-1.69141656 31.91036938 -3.37959602 31.75422324 -5.0625 31.5625 C-5.98160156 31.46066406 -6.90070312 31.35882813 -7.84765625 31.25390625 C-8.55792969 31.17011719 -9.26820312 31.08632812 -10 31 C-10.99 32.485 -10.99 32.485 -12 34 C-11.42659174 22.91410699 -7.23516993 12.69475913 -2 3 C-1.34 3 -0.68 3 0 3 C0 2.01 0 1.02 0 0 Z " fill="#EAEAEA" transform="translate(24,112)"/>
<path d="M0 0 C3.18748029 -0.02932572 6.37492528 -0.04690739 9.5625 -0.0625 C10.90538086 -0.07506836 10.90538086 -0.07506836 12.27539062 -0.08789062 C17.29309413 -0.10627049 22.06544868 0.05283109 27 1 C28 2 28 2 28.09765625 4.28515625 C28.06510417 6.85677083 28.03255208 9.42838542 28 12 C24.7 12 21.4 12 18 12 C17.875 3.25 17.875 3.25 19 1 C17.68 1 16.36 1 15 1 C15 4.63 15 8.26 15 12 C14.01 12 13.02 12 12 12 C12 8.37 12 4.74 12 1 C11.01 1 10.02 1 9 1 C9.33 4.3 9.66 7.6 10 11 C8.68 10.67 7.36 10.34 6 10 C6 7.03 6 4.06 6 1 C4.02 1 2.04 1 0 1 C0 0.67 0 0.34 0 0 Z " fill="#201F20" transform="translate(108,140)"/>
<path d="M0 0 C27.06 0 54.12 0 82 0 C81.67 0.66 81.34 1.32 81 2 C66.81 2.33 52.62 2.66 38 3 C38 6.63 38 10.26 38 14 C37.01 14 36.02 14 35 14 C34.505 10.04 34.505 10.04 34 6 C33.67 8.31 33.34 10.62 33 13 C32.67 13 32.34 13 32 13 C31.67 10.03 31.34 7.06 31 4 C24.70354997 2.93719496 18.43733393 2.67888105 12.0625 2.4375 C10.99708984 2.39431641 9.93167969 2.35113281 8.83398438 2.30664062 C6.22276557 2.20125511 3.61146254 2.09912912 1 2 C0.67 1.34 0.34 0.68 0 0 Z " fill="#797879" transform="translate(104,138)"/>
<path d="M0 0 C0.33 0.66 0.66 1.32 1 2 C2.66072849 2.68132451 4.327767 3.34742127 6 4 C6.66 4.66 7.32 5.32 8 6 C7.53620997 14.34822061 6.16281872 25.83718128 0 32 C-1.69141656 31.91036938 -3.37959602 31.75422324 -5.0625 31.5625 C-5.98160156 31.46066406 -6.90070312 31.35882813 -7.84765625 31.25390625 C-8.55792969 31.17011719 -9.26820312 31.08632812 -10 31 C-10.99 32.485 -10.99 32.485 -12 34 C-12 32.35 -12 30.7 -12 29 C-8.7 29.33 -5.4 29.66 -2 30 C-1.06026956 26.24107825 -0.26345411 22.48568418 0.5 18.6875 C0.7578125 17.41261719 1.015625 16.13773438 1.28125 14.82421875 C1.95891231 11.21861331 2.51101046 7.63450876 3 4 C1.68 3.67 0.36 3.34 -1 3 C-0.67 2.01 -0.34 1.02 0 0 Z " fill="#BFBFBF" transform="translate(24,112)"/>
<path d="M0 0 C3.29159316 -0.05790353 6.58305603 -0.09356261 9.875 -0.125 C10.81214844 -0.14175781 11.74929687 -0.15851563 12.71484375 -0.17578125 C13.61074219 -0.18222656 14.50664063 -0.18867188 15.4296875 -0.1953125 C16.25710449 -0.20578613 17.08452148 -0.21625977 17.93701172 -0.22705078 C20 0 20 0 22 2 C19.69 1.67 17.38 1.34 15 1 C15 4.63 15 8.26 15 12 C14.01 12 13.02 12 12 12 C12 8.37 12 4.74 12 1 C11.01 1 10.02 1 9 1 C9.33 4.3 9.66 7.6 10 11 C8.68 10.67 7.36 10.34 6 10 C6 7.03 6 4.06 6 1 C4.02 1 2.04 1 0 1 C0 0.67 0 0.34 0 0 Z " fill="#D0D0D0" transform="translate(108,140)"/>
<path d="M0 0 C3.46679688 0.04882812 3.46679688 0.04882812 6.93359375 0.09765625 C6.93359375 3.39765625 6.93359375 6.69765625 6.93359375 10.09765625 C3.63359375 10.09765625 0.33359375 10.09765625 -3.06640625 10.09765625 C-3.1640625 3.1640625 -3.1640625 3.1640625 -3.06640625 1.09765625 C-2.06640625 0.09765625 -2.06640625 0.09765625 0 0 Z " fill="#F3F3F3" transform="translate(135.06640625,125.90234375)"/>
<path d="M0 0 C2.5625 0.3125 2.5625 0.3125 4.4375 1.4375 C6.11540631 4.23401052 5.31125648 6.24940532 4.5625 9.3125 C1.1875 9.9375 1.1875 9.9375 -2.4375 10.3125 C-4.4375 8.3125 -4.4375 8.3125 -4.6875 5.3125 C-4.37675292 1.58353509 -3.7821044 0.48488518 0 0 Z " fill="#CFCFCF" transform="translate(125.4375,125.6875)"/>
<path d="M0 0 C7.59 0 15.18 0 23 0 C23 0.33 23 0.66 23 1 C20.03 1 17.06 1 14 1 C14 4.63 14 8.26 14 12 C13.01 12 12.02 12 11 12 C10.67 9.36 10.34 6.72 10 4 C9.67 6.31 9.34 8.62 9 11 C8.67 11 8.34 11 8 11 C7.67 8.03 7.34 5.06 7 2 C4.69 1.67 2.38 1.34 0 1 C0 0.67 0 0.34 0 0 Z " fill="#DFDFDF" transform="translate(128,140)"/>
<path d="M0 0 C1.27875 -0.061875 2.5575 -0.12375 3.875 -0.1875 C4.95394531 -0.23970703 4.95394531 -0.23970703 6.0546875 -0.29296875 C6.69664062 -0.19628906 7.33859375 -0.09960938 8 0 C10 3 10 3 9.625 5.6875 C9.41875 6.450625 9.2125 7.21375 9 8 C7.35 8.33 5.7 8.66 4 9 C4 8.34 4 7.68 4 7 C4.66 6.67 5.32 6.34 6 6 C6.33 5.01 6.66 4.02 7 3 C5.68 3 4.36 3 3 3 C3 4.98 3 6.96 3 9 C2.01 9 1.02 9 0 9 C0 6.03 0 3.06 0 0 Z " fill="#2B2B2B" transform="translate(161,142)"/>
<path d="M0 0 C0.78375 0.04125 1.5675 0.0825 2.375 0.125 C3.035 1.445 3.695 2.765 4.375 4.125 C2.395 4.125 0.415 4.125 -1.625 4.125 C-1.955 5.115 -2.285 6.105 -2.625 7.125 C0.84 6.63 0.84 6.63 4.375 6.125 C3.715 7.445 3.055 8.765 2.375 10.125 C-0.5 10.3125 -0.5 10.3125 -3.625 10.125 C-5.625 7.125 -5.625 7.125 -5.375 4.5625 C-4.336523 1.18744974 -3.59386412 0.17113639 0 0 Z " fill="#E5E5E5" transform="translate(114.625,125.875)"/>
<path d="M0 0 C0.33 0 0.66 0 1 0 C-0.19984848 16.89260365 -0.19984848 16.89260365 -4 24 C-10.75 24.125 -10.75 24.125 -13 23 C-13 22.34 -13 21.68 -13 21 C-12.01 21 -11.02 21 -10 21 C-10 21.66 -10 22.32 -10 23 C-4.2464808 17.700706 -2.86989942 13.77329917 -2.34375 6.18359375 C-1.9683122 3.79871043 -1.17749345 2.09384925 0 0 Z " fill="#D4D4D4" transform="translate(26,118)"/>
<path d="M0 0 C2.625 -0.1875 2.625 -0.1875 5 0 C6.60725635 3.21451269 6.05748185 6.43612536 6 10 C5.01 10 4.02 10 3 10 C3 7.69 3 5.38 3 3 C2.34 3 1.68 3 1 3 C1.185625 3.78375 1.37125 4.5675 1.5625 5.375 C2 8 2 8 1 10 C0.01 10 -0.98 10 -2 10 C-2.25 3.375 -2.25 3.375 0 0 Z " fill="#D8D7D8" transform="translate(154,126)"/>
<path d="M0 0 C2.625 0.375 2.625 0.375 5 1 C5 3.97 5 6.94 5 10 C2.69 10 0.38 10 -2 10 C-2.1953125 3.9453125 -2.1953125 3.9453125 -2 2 C-1.34 1.34 -0.68 0.68 0 0 Z " fill="#E2E2E2" transform="translate(163,126)"/>
<path d="M0 0 C1.65 0 3.3 0 5 0 C5 3.3 5 6.6 5 10 C3.35 10 1.7 10 0 10 C-1.49106457 7.01787087 -1.11941467 4.28390342 -1 1 C-0.67 0.67 -0.34 0.34 0 0 Z " fill="#434344" transform="translate(154,142)"/>
<path d="M0 0 C1.32 0.99 2.64 1.98 4 3 C3.25768373 10.72008916 2.35779152 19.46331272 -2 26 C-1.855625 24.7934375 -1.71125 23.586875 -1.5625 22.34375 C-1.37476098 20.72919444 -1.18727446 19.11460951 -1 17.5 C-0.90460937 16.70851562 -0.80921875 15.91703125 -0.7109375 15.1015625 C-0.12892118 10.02970596 0.09367085 5.10506141 0 0 Z " fill="#989899" transform="translate(28,115)"/>
<path d="M0 0 C0.66 0.33 1.32 0.66 2 1 C-0.61691164 3.67470955 -3.24481708 6.33834481 -5.875 9 C-6.62136719 9.763125 -7.36773437 10.52625 -8.13671875 11.3125 C-8.85214844 12.034375 -9.56757813 12.75625 -10.3046875 13.5 C-11.2944458 14.50546875 -11.2944458 14.50546875 -12.30419922 15.53125 C-14 17 -14 17 -16 17 C-16 17.66 -16 18.32 -16 19 C-16.66 18.67 -17.32 18.34 -18 18 C-6.25 4.25 -6.25 4.25 0 0 Z " fill="#F6CECD" transform="translate(26,73)"/>
<path d="M0 0 C0 3.3 0 6.6 0 10 C-1.98 10 -3.96 10 -6 10 C-5.34 9.67 -4.68 9.34 -4 9 C-4 6.36 -4 3.72 -4 1 C-4.66 0.67 -5.32 0.34 -6 0 C-4 -1 -4 -1 0 0 Z " fill="#414041" transform="translate(136,142)"/>
<path d="M0 0 C2.625 0.375 2.625 0.375 5 1 C5 2.65 5 4.3 5 6 C4.01 6 3.02 6 2 6 C1.67 7.32 1.34 8.64 1 10 C0.01 10 -0.98 10 -2 10 C-2.1953125 3.9453125 -2.1953125 3.9453125 -2 2 C-1.34 1.34 -0.68 0.68 0 0 Z " fill="#E1E1E1" transform="translate(146,126)"/>
<path d="M0 0 C2.31 0 4.62 0 7 0 C7 0.99 7 1.98 7 3 C6.34 3 5.68 3 5 3 C5 5.31 5 7.62 5 10 C4.01 10 3.02 10 2 10 C2 7.69 2 5.38 2 3 C1.34 3 0.68 3 0 3 C0 2.01 0 1.02 0 0 Z " fill="#272727" transform="translate(144,142)"/>
<path d="M0 0 C0.99 0 1.98 0 3 0 C3 0.66 3 1.32 3 2 C3.66 2 4.32 2 5 2 C5 1.34 5 0.68 5 0 C5.99 0 6.98 0 8 0 C7.690625 0.53625 7.38125 1.0725 7.0625 1.625 C5.82172561 4.3984957 5.4090325 7.00042837 5 10 C4.01 10 3.02 10 2 10 C1.855625 8.906875 1.71125 7.81375 1.5625 6.6875 C1.11711896 3.06877013 1.11711896 3.06877013 0 0 Z " fill="#D4D3D4" transform="translate(169,126)"/>
<path d="M0 0 C0.99 0.33 1.98 0.66 3 1 C2.67 2.98 2.34 4.96 2 7 C-1.375 7.625 -1.375 7.625 -5 8 C-5.66 7.34 -6.32 6.68 -7 6 C-6.625 3.375 -6.625 3.375 -6 1 C-5.34 2.32 -4.68 3.64 -4 5 C-3.01 5 -2.02 5 -1 5 C-0.67 3.35 -0.34 1.7 0 0 Z " fill="#EDEDED" transform="translate(128,128)"/>
<path d="M0 0 C1.67542976 0.28604898 3.34385343 0.61781233 5 1 C4.34 1.66 3.68 2.32 3 3 C2.59952556 5.32275177 2.2602896 7.65739357 2 10 C1.01 10 0.02 10 -1 10 C-1.02689216 8.52093108 -1.04634621 7.04172517 -1.0625 5.5625 C-1.07410156 4.73878906 -1.08570313 3.91507813 -1.09765625 3.06640625 C-1 1 -1 1 0 0 Z " fill="#E4E4E4" transform="translate(133,126)"/>
<path d="M0 0 C0.33 0.99 0.66 1.98 1 3 C1.66 3.33 2.32 3.66 3 4 C2.34 4.66 1.68 5.32 1 6 C-1.3828125 5.9765625 -1.3828125 5.9765625 -4.125 5.625 C-5.03507812 5.51414063 -5.94515625 5.40328125 -6.8828125 5.2890625 C-7.93082031 5.14597656 -7.93082031 5.14597656 -9 5 C-9.66 5.99 -10.32 6.98 -11 8 C-11 6.35 -11 4.7 -11 3 C-7.7 3.33 -4.4 3.66 -1 4 C-0.67 2.68 -0.34 1.36 0 0 Z " fill="#989898" transform="translate(23,138)"/>
<path d="M0 0 C0.99 0 1.98 0 3 0 C3 3.3 3 6.6 3 10 C1.35 10.33 -0.3 10.66 -2 11 C-1.01 10.67 -0.02 10.34 1 10 C0.67 9.34 0.34 8.68 0 8 C-0.13415472 5.3276379 -0.04318541 2.67749512 0 0 Z " fill="#E9E9E9" transform="translate(117,141)"/>
<path d="M0 0 C0.99 0 1.98 0 3 0 C3 3.3 3 6.6 3 10 C2.01 10 1.02 10 0 10 C0 6.7 0 3.4 0 0 Z " fill="#2B2A2C" transform="translate(139,142)"/>
<path d="M0 0 C0.99 0 1.98 0 3 0 C3 3.3 3 6.6 3 10 C2.01 10 1.02 10 0 10 C0 6.7 0 3.4 0 0 Z " fill="#191919" transform="translate(120,142)"/>
<path d="M0 0 C0.78375 0.04125 1.5675 0.0825 2.375 0.125 C3.035 1.445 3.695 2.765 4.375 4.125 C2.35677083 4.02734375 0.33854167 3.9296875 -1.6796875 3.83203125 C-2.64261719 3.97705078 -2.64261719 3.97705078 -3.625 4.125 C-4.285 5.115 -4.945 6.105 -5.625 7.125 C-4.53409091 0.21590909 -4.53409091 0.21590909 0 0 Z " fill="#D0D0D0" transform="translate(114.625,125.875)"/>
<path d="M0 0 C2.64 0 5.28 0 8 0 C8 1.32 8 2.64 8 4 C5.03 4 2.06 4 -1 4 C-0.67 2.68 -0.34 1.36 0 0 Z " fill="#515151" transform="translate(113,129)"/>
<path d="M0 0 C0.99 0 1.98 0 3 0 C3.33 2.97 3.66 5.94 4 9 C2.68 8.67 1.36 8.34 0 8 C0 5.36 0 2.72 0 0 Z " fill="#161617" transform="translate(114,142)"/>
<path d="M0 0 C1.32 0 2.64 0 4 0 C3.67 3.63 3.34 7.26 3 11 C2.01 11 1.02 11 0 11 C0 7.37 0 3.74 0 0 Z " fill="#F1F1F1" transform="translate(123,141)"/>
<path d="M0 0 C1.32 0 2.64 0 4 0 C3.67 1.32 3.34 2.64 3 4 C2.34 4 1.68 4 1 4 C1 4.66 1 5.32 1 6 C2.32 6.33 3.64 6.66 5 7 C2.36 7 -0.28 7 -3 7 C-2.01 6.67 -1.02 6.34 0 6 C0 4.02 0 2.04 0 0 Z " fill="#ABABAB" transform="translate(164,145)"/>
<path d="M0 0 C0.66 0 1.32 0 2 0 C3.125 5.75 3.125 5.75 2 8 C1.01 8 0.02 8 -1 8 C-1.04241723 5.66705225 -1.04092937 3.33297433 -1 1 C-0.67 0.67 -0.34 0.34 0 0 Z " fill="#E2E2E2" transform="translate(153,128)"/>
<path d="M0 0 C1.32 0 2.64 0 4 0 C4 3.3 4 6.6 4 10 C3.34 10 2.68 10 2 10 C1.77213542 7.98177083 1.54427083 5.96354167 1.31640625 3.9453125 C1.08707039 1.92595684 1.08707039 1.92595684 0 0 Z " fill="#E7E7E7" transform="translate(138,126)"/>
<path d="M0 0 C1.32 0.33 2.64 0.66 4 1 C3.67 2.32 3.34 3.64 3 5 C2.01 5 1.02 5 0 5 C0 3.35 0 1.7 0 0 Z " fill="#454545" transform="translate(124,129)"/>
</svg>
