<?xml version="1.0" encoding="UTF-8"?>
<svg version="1.1" xmlns="http://www.w3.org/2000/svg" width="358" height="358">
<path d="M0 0 C0.78095032 -0.00705963 1.56190063 -0.01411926 2.36651611 -0.02139282 C34.88684437 -0.24871453 34.88684437 -0.24871453 48.57421875 3.203125 C49.4058252 3.40711914 50.23743164 3.61111328 51.09423828 3.82128906 C75.93826301 10.06067674 99.25784384 20.50063197 119.57421875 36.203125 C120.46753906 36.8734375 121.36085938 37.54375 122.28125 38.234375 C159.26531161 67.06752648 182.50568359 109.77046475 189.10913086 155.94335938 C189.6233058 160.17825879 189.75163215 164.36619355 189.77734375 168.62890625 C189.78440338 169.40985657 189.79146301 170.19080688 189.79873657 170.99542236 C190.02605828 203.51575062 190.02605828 203.51575062 186.57421875 217.203125 C186.26822754 218.45053467 186.26822754 218.45053467 185.95605469 219.72314453 C179.71666701 244.56716926 169.27671178 267.88675009 153.57421875 288.203125 C152.90390625 289.09644531 152.23359375 289.98976563 151.54296875 290.91015625 C122.70981727 327.89421786 80.006879 351.13458984 33.83398438 357.73803711 C29.59908496 358.25221205 25.4111502 358.3805384 21.1484375 358.40625 C20.36748718 358.41330963 19.58653687 358.42036926 18.78192139 358.42764282 C-13.73840687 358.65496453 -13.73840687 358.65496453 -27.42578125 355.203125 C-28.67319092 354.89713379 -28.67319092 354.89713379 -29.94580078 354.58496094 C-54.78982551 348.34557326 -78.10940634 337.90561803 -98.42578125 322.203125 C-99.31910156 321.5328125 -100.21242188 320.8625 -101.1328125 320.171875 C-138.11687411 291.33872352 -161.35724609 248.63578525 -167.96069336 202.46289062 C-168.4748683 198.22799121 -168.60319465 194.04005645 -168.62890625 189.77734375 C-168.63596588 188.99639343 -168.64302551 188.21544312 -168.65029907 187.41082764 C-168.87762078 154.89049938 -168.87762078 154.89049938 -165.42578125 141.203125 C-165.22178711 140.37151855 -165.01779297 139.53991211 -164.80761719 138.68310547 C-158.56822951 113.83908074 -148.12827428 90.51949991 -132.42578125 70.203125 C-131.75546875 69.30980469 -131.08515625 68.41648437 -130.39453125 67.49609375 C-101.56137977 30.51203214 -58.8584415 7.27166016 -12.68554688 0.66821289 C-8.45064746 0.15403795 -4.2627127 0.0257116 0 0 Z " fill="#010101" transform="translate(168.42578125,-0.203125)"/>
<path d="M0 0 C1.887036 1.40784122 3.75607417 2.83227683 5.60546875 4.2890625 C-14.01450283 39.90065474 -52.86789915 66.89192617 -91.38989258 78.37036133 C-93.71965892 79.03046581 -96.05559984 79.66230624 -98.39453125 80.2890625 C-99.494021 80.60230469 -99.494021 80.60230469 -100.61572266 80.921875 C-115.40681483 85.06272561 -130.13760935 84.71592139 -145.39453125 84.2890625 C-150.5995979 73.8789292 -146.06753557 54.00051549 -142.6171875 43.58056641 C-134.13219505 19.61046274 -116.88726703 0.97360643 -94.11962891 -10.10131836 C-63.20846813 -24.64796609 -27.42747439 -19.59744499 0 0 Z " fill="#010101" transform="translate(323.39453125,272.7109375)"/>
<path d="M0 0 C2.45698766 0.4638089 4.91912487 0.88177102 7.38476562 1.296875 C19.05841342 3.35479503 30.14193942 6.66331791 41.27270508 10.72412109 C43.58105983 11.55744892 43.58105983 11.55744892 46.77929688 12.21875 C50.57925062 14.00829603 51.52555901 16.85239281 52.96289062 20.578125 C53.25172119 21.28227539 53.54055176 21.98642578 53.83813477 22.71191406 C61.40039062 41.58094528 61.40039062 41.58094528 61.40039062 49.453125 C58.22876103 48.24272758 55.14358908 46.89017513 52.06445312 45.46484375 C0.22167708 21.47781058 -57.61403094 19.13743613 -111.53710938 38.015625 C-135.70134704 46.90427571 -159.12230305 60.44840217 -177.69335938 78.421875 C-178.21961914 78.92525391 -178.74587891 79.42863281 -179.28808594 79.94726562 C-180.76556433 81.37207593 -182.22233624 82.81826774 -183.67773438 84.265625 C-187.11378837 86.83807184 -189.33645963 87.372307 -193.59960938 87.453125 C-196.09960938 85.453125 -196.09960938 85.453125 -198.59960938 82.453125 C-199.81973228 81.23566032 -201.04932416 80.02762819 -202.28710938 78.828125 C-204.41540566 76.74230026 -205.92533256 74.96454023 -207.59960938 72.453125 C-207.59960938 68.26470728 -206.79355713 66.67811622 -204.03710938 63.48046875 C-202.90644026 62.43389621 -201.75937964 61.40485361 -200.59960938 60.390625 C-199.97803955 59.83262207 -199.35646973 59.27461914 -198.71606445 58.69970703 C-174.99314661 37.73472157 -147.56942879 20.81570719 -117.59960938 10.453125 C-116.86919434 10.19337891 -116.1387793 9.93363281 -115.38623047 9.66601562 C-79.52102307 -2.97851887 -37.53172376 -7.09646285 0 0 Z " fill="#9C9C9C" transform="translate(291.599609375,87.546875)"/>
<path d="M0 0 C1.12019531 0.51304687 2.24039063 1.02609375 3.39453125 1.5546875 C11.79468424 5.50448858 18.79314111 10.17907551 26 16 C24.53398626 20.9248899 22.4482205 25.20353093 20 29.6875 C19.46632813 30.68233398 19.46632813 30.68233398 18.921875 31.69726562 C17.38103452 34.5518451 15.80058312 37.29912532 14 40 C10.79038549 39.40040168 8.94558945 38.37639219 6.4375 36.3125 C-9.24435141 24.21837843 -28.66658344 18.38378471 -48.3125 18.5625 C-49.49094482 18.57007324 -50.66938965 18.57764648 -51.88354492 18.58544922 C-75.98100081 19.03902502 -97.72313423 29.23735281 -114.57275391 46.44775391 C-130.65287682 63.93619412 -138.25385217 85.47840268 -138.0625 109 C-138.05798828 110.06089844 -138.05347656 111.12179687 -138.04882812 112.21484375 C-138.03713859 114.80992055 -138.01920665 117.40496795 -138 120 C-131.4 120 -124.8 120 -118 120 C-118 120.33 -118 120.66 -118 121 C-159.44619217 121.61916858 -159.44619217 121.61916858 -175 118 C-175 117.67 -175 117.34 -175 117 C-169.25 116.875 -169.25 116.875 -167 118 C-167.03480469 117.01644531 -167.06960937 116.03289062 -167.10546875 115.01953125 C-167.91466679 81.78548292 -157.44229094 51.71726399 -134.640625 27.36328125 C-117.45303877 9.47483739 -96.39508237 -2.90442144 -72 -8 C-71.05382812 -8.20625 -70.10765625 -8.4125 -69.1328125 -8.625 C-46.60927064 -12.83719484 -20.53071694 -10.49014734 0 0 Z " fill="#9B9B9B" transform="translate(316,237)"/>
<path d="M0 0 C5.27278722 3.75730926 6.46838814 9.99922329 8 16 C8.49483625 19.11039928 8.82887963 21.80135994 6.94921875 24.51953125 C4.0660536 26.70935007 0.78499902 27.55157369 -2.625 28.625 C-32.56306701 38.6803379 -56.9244608 59.74203457 -74 86 C-74.60714844 86.92167969 -75.21429688 87.84335938 -75.83984375 88.79296875 C-92.36119795 115.35451099 -99.32081883 151.07901513 -94 182 C-93.01 182.99 -93.01 182.99 -92 184 C-95.77660974 183.38637002 -98.86173107 182.28556741 -102.30859375 180.63671875 C-103.30310547 180.16169922 -104.29761719 179.68667969 -105.32226562 179.19726562 C-106.35029297 178.69904297 -107.37832031 178.20082031 -108.4375 177.6875 C-109.46166016 177.20087891 -110.48582031 176.71425781 -111.54101562 176.21289062 C-116.61923693 173.77074277 -121.42830776 171.30134208 -126 168 C-125.34 167.67 -124.68 167.34 -124 167 C-123.96261719 165.81148437 -123.92523438 164.62296875 -123.88671875 163.3984375 C-122.09591094 115.0959601 -105.68300996 75.74435336 -73.27734375 40.10546875 C-72 39 -72 39 -70 39 C-70 38.34 -70 37.68 -70 37 C-67.07417046 34.23232341 -63.87375174 31.79767542 -60.69775391 29.32373047 C-59.57544029 28.448668 -58.457811 27.56756068 -57.34521484 26.68017578 C-43.34908224 15.56068645 -18.76443352 -2.24019833 0 0 Z " fill="#9C9C9C" transform="translate(209,163)"/>
<path d="M0 0 C0.84328857 0.01087646 1.68657715 0.02175293 2.55541992 0.03295898 C34.46105371 0.81488749 74.34095642 13.15345642 97.5625 36.375 C97.64729178 47.34705593 95.14308045 57.7886188 92.5625 68.375 C91.49991101 67.46494765 90.43743416 66.55476435 89.375 65.64453125 C88.41207031 64.82009521 88.41207031 64.82009521 87.4296875 63.97900391 C85.94701674 62.70531838 84.47212228 61.42258165 83 60.13671875 C59.42434778 40.07474547 30.0173551 29.82715336 -0.66992188 28.28442383 C-7.75295917 27.82397825 -7.75295917 27.82397825 -11.09375 25.6328125 C-12.71811798 22.90349653 -12.88226585 21.34819779 -12.75 18.1875 C-12.71132812 17.22457031 -12.67265625 16.26164063 -12.6328125 15.26953125 C-12.53613281 13.83673828 -12.53613281 13.83673828 -12.4375 12.375 C-12.39367187 11.51261719 -12.34984375 10.65023437 -12.3046875 9.76171875 C-11.88056025 4.12820242 -11.88056025 4.12820242 -10.421875 1.6484375 C-7.19085837 -0.42501018 -3.71538135 -0.065156 0 0 Z " fill="#9C9C9C" transform="translate(260.4375,155.625)"/>
<path d="M0 0 C2.62004531 1.22144461 4.94035788 2.79371277 7.3125 4.4375 C7.94478516 4.85837891 8.57707031 5.27925781 9.22851562 5.71289062 C13.72501522 8.72501522 13.72501522 8.72501522 15 10 C15.68646019 16.31383732 13.94500927 19.50582351 10.625 24.5625 C-2.38729376 45.52740174 -20.0053732 80.39117774 -16 106 C-14.54695959 108.28117183 -13.20119063 109.34910703 -11 111 C-11.33 111.66 -11.66 112.32 -12 113 C-22.20816662 103.87269808 -30.15507115 92.31018328 -37.375 80.75 C-37.97429321 79.82078735 -37.97429321 79.82078735 -38.58569336 78.87280273 C-39.6484375 77.109375 -39.6484375 77.109375 -41 74 C-40.2043457 72.1640625 -40.2043457 72.1640625 -39 70 C-38.33126349 68.09863254 -37.69518927 66.18563646 -37.08203125 64.265625 C-30.15900399 42.86424722 -21.99873907 23.76429243 -10.3203125 4.53125 C-9.72500732 3.54995117 -9.72500732 3.54995117 -9.11767578 2.54882812 C-6.73985045 -0.74626229 -3.77005171 -0.38451876 0 0 Z " fill="#9C9C9C" transform="translate(62,191)"/>
</svg>
